<svg width="45" height="44" viewBox="0 0 45 44" fill="none" xmlns="http://www.w3.org/2000/svg">
<g clip-path="url(#clip0_12_2206)">
<path d="M34.3077 32.8034C34.2551 32.3936 34.1082 32.0016 33.8785 31.6583C33.6487 31.3149 33.3423 31.0296 32.9835 30.8248L24.7294 26.0714C24.2165 25.7766 23.6208 25.6589 23.0343 25.7365C22.4478 25.814 21.9031 26.0825 21.4844 26.5004L19.349 28.6371C19.146 28.8398 18.8751 28.96 18.5886 28.9745C18.3021 28.989 18.0204 28.8967 17.798 28.7155C16.5106 27.6735 15.2792 26.5642 14.1089 25.3921C12.9369 24.2219 11.8275 22.9904 10.7855 21.703C10.6044 21.4806 10.5121 21.1989 10.5266 20.9125C10.5411 20.626 10.6612 20.355 10.8639 20.152L13.0007 18.0153C13.4183 17.5967 13.6865 17.0523 13.7641 16.4661C13.8416 15.8799 13.7241 15.2844 13.4297 14.7716L8.67491 6.51477C8.47001 6.15604 8.18467 5.84975 7.84134 5.61999C7.498 5.39022 7.10604 5.24325 6.69628 5.19064C6.2871 5.13493 5.87056 5.17499 5.47949 5.30765C5.08842 5.44032 4.73349 5.66197 4.44266 5.95514L1.99241 8.40677C-1.50559 11.9048 2.14503 21.0361 10.3043 29.1954C16.368 35.2591 22.968 38.8341 27.3955 38.8328C28.9245 38.8328 30.195 38.4065 31.0943 37.5073L33.5432 35.057C33.8364 34.766 34.0582 34.4108 34.1908 34.0195C34.3235 33.6282 34.3635 33.2114 34.3077 32.802V32.8034ZM32.6315 34.1454L32.3057 34.4726L25.2354 30.4384C25.0877 30.3632 24.9167 30.3477 24.7579 30.3953C24.599 30.4428 24.4646 30.5497 24.3825 30.6937C24.3005 30.8377 24.277 31.0078 24.317 31.1687C24.357 31.3296 24.4574 31.4689 24.5974 31.5576L31.361 35.4173L30.1813 36.5956C28.8544 37.9239 26.1154 37.8593 22.6697 36.4169C18.9902 34.8796 14.9229 31.9894 11.2159 28.2838C7.50891 24.5768 4.62003 20.5095 3.08278 16.83C1.64041 13.3843 1.57441 10.6453 2.90403 9.3184L4.16216 8.05889L4.60903 8.83577C4.65128 8.90917 4.70758 8.97353 4.77471 9.02517C4.84183 9.07682 4.91847 9.11473 5.00025 9.13676C5.08203 9.15878 5.16735 9.16449 5.25133 9.15354C5.33531 9.14259 5.41632 9.11521 5.48972 9.07296C5.56312 9.0307 5.62748 8.97441 5.67912 8.90728C5.73077 8.84016 5.76868 8.76352 5.79071 8.68174C5.81273 8.59996 5.81844 8.51464 5.80749 8.43066C5.79654 8.34667 5.76916 8.26567 5.72691 8.19227L5.10678 7.11564L5.35428 6.86814C5.50558 6.71544 5.69027 6.59994 5.89379 6.53075C6.09732 6.46155 6.31413 6.44055 6.52716 6.46939C6.96303 6.52714 7.33841 6.77877 7.55841 7.15964L12.3118 15.4151C12.6267 15.9638 12.5345 16.6568 12.0877 17.1036L11.3067 17.8846L7.10466 10.5848C7.01932 10.4365 6.8786 10.3283 6.71344 10.2838C6.54828 10.2393 6.37221 10.2622 6.22397 10.3476C6.07573 10.4329 5.96746 10.5736 5.92298 10.7388C5.8785 10.904 5.90145 11.08 5.98678 11.2283L10.3634 18.8293L9.95091 19.2418C9.52303 19.6694 9.26879 20.2405 9.2373 20.8446C9.20582 21.4487 9.39931 22.0431 9.78041 22.5129C10.8512 23.8359 11.9913 25.1013 13.1959 26.3038C14.3989 27.5084 15.6647 28.6485 16.9882 29.7193C17.4582 30.1005 18.0528 30.294 18.6572 30.2625C19.2615 30.231 19.8328 29.9768 20.2607 29.5488L20.5577 29.2518L22.1485 30.1593C22.2219 30.2017 22.303 30.2292 22.3871 30.2401C22.4712 30.2511 22.5566 30.2452 22.6384 30.223C22.7202 30.2008 22.7968 30.1625 22.8638 30.1105C22.9307 30.0585 22.9867 29.9938 23.0285 29.92C23.0705 29.8464 23.0976 29.7653 23.1083 29.6813C23.1189 29.5972 23.1129 29.5119 23.0906 29.4302C23.0682 29.3484 23.03 29.2719 22.9781 29.205C22.9261 29.138 22.8615 29.082 22.7879 29.04L21.5023 28.3071L22.396 27.4134C22.6139 27.1959 22.8972 27.0562 23.2024 27.0156C23.5075 26.9751 23.8175 27.0362 24.0845 27.1893L32.3414 31.9426C32.7223 32.1626 32.9739 32.5366 33.0303 32.9725C33.0591 33.1855 33.0381 33.4024 32.9689 33.6059C32.8997 33.8094 32.7842 33.9941 32.6315 34.1454Z" fill="#1A1A1A"/>
<path d="M21.2852 21.7043H16.4562C16.6817 19.8206 17.8876 18.5418 19.1567 17.1957C20.5207 15.752 21.9301 14.2574 21.9301 12.0134C21.929 11.1119 21.5704 10.2476 20.9329 9.61013C20.2954 8.97267 19.4312 8.61407 18.5297 8.61298C17.6279 8.6137 16.7633 8.97215 16.1256 9.60964C15.4878 10.2471 15.129 11.1116 15.1279 12.0134C15.1279 12.1844 15.1959 12.3484 15.3168 12.4693C15.4377 12.5903 15.6018 12.6582 15.7728 12.6582C15.9438 12.6582 16.1079 12.5903 16.2288 12.4693C16.3497 12.3484 16.4177 12.1844 16.4177 12.0134C16.4177 10.8487 17.3651 9.90273 18.5297 9.90273C19.6929 9.90273 20.6403 10.8487 20.6403 12.0134C20.6403 13.7459 19.5183 14.9338 18.2203 16.3116C16.7711 17.8475 15.1279 19.5882 15.1279 22.3478C15.1279 22.7053 15.4167 22.9941 15.7742 22.9941H21.2852C21.4562 22.9941 21.6202 22.9262 21.7412 22.8052C21.8621 22.6843 21.9301 22.5203 21.9301 22.3492C21.9301 22.1782 21.8621 22.0142 21.7412 21.8932C21.6202 21.7723 21.4562 21.7043 21.2852 21.7043Z" fill="#1A1A1A"/>
<path d="M29.5529 18.26H28.8201V9.25648C28.8201 9.08545 28.7521 8.92142 28.6312 8.80049C28.5103 8.67955 28.3462 8.61161 28.1752 8.61161C28.0042 8.61161 27.8401 8.67955 27.7192 8.80049C27.5983 8.92142 27.5303 9.08545 27.5303 9.25648V18.2572H24.0969L25.3702 9.34723C25.3822 9.26336 25.3776 9.17794 25.3566 9.09586C25.3356 9.01377 25.2986 8.93663 25.2478 8.86883C25.197 8.80103 25.1333 8.74391 25.0604 8.70072C24.9875 8.65753 24.9068 8.62912 24.8229 8.61711C24.7391 8.6051 24.6537 8.60973 24.5716 8.63073C24.4895 8.65174 24.4123 8.6887 24.3445 8.73952C24.2767 8.79034 24.2196 8.85401 24.1764 8.9269C24.1332 8.9998 24.1048 9.08048 24.0928 9.16436L22.7151 18.8114C22.7023 18.9027 22.7093 18.9958 22.7355 19.0842C22.7616 19.1727 22.8065 19.2545 22.8669 19.3242C22.9273 19.3938 23.002 19.4498 23.0859 19.4882C23.1697 19.5267 23.2608 19.5467 23.3531 19.547H27.5317V22.3465C27.5317 22.4312 27.5484 22.515 27.5808 22.5933C27.6132 22.6715 27.6607 22.7426 27.7206 22.8025C27.7805 22.8624 27.8515 22.9099 27.9298 22.9423C28.008 22.9747 28.0919 22.9914 28.1766 22.9914C28.2613 22.9914 28.3451 22.9747 28.4234 22.9423C28.5016 22.9099 28.5727 22.8624 28.6326 22.8025C28.6924 22.7426 28.7399 22.6715 28.7724 22.5933C28.8048 22.515 28.8214 22.4312 28.8214 22.3465V19.547H29.5543C29.7254 19.547 29.8894 19.479 30.0103 19.3581C30.1313 19.2372 30.1992 19.0731 30.1992 18.9021C30.1992 18.7311 30.1313 18.5671 30.0103 18.4461C29.8894 18.3252 29.7254 18.2572 29.5543 18.2572L29.5529 18.26Z" fill="#1A1A1A"/>
<path d="M44.5433 8.87698C44.4834 8.79506 44.4049 8.72846 44.3144 8.68258C44.2238 8.63671 44.1237 8.61286 44.0222 8.61298H39.1987C39.0277 8.61298 38.8636 8.68092 38.7427 8.80186C38.6218 8.92279 38.5538 9.08682 38.5538 9.25785C38.5538 9.42888 38.6218 9.59291 38.7427 9.71385C38.8636 9.83478 39.0277 9.90273 39.1987 9.90273H43.1422L39.2743 22.154C39.2274 22.3156 39.2456 22.4892 39.325 22.6377C39.4043 22.7861 39.5386 22.8976 39.6991 22.9484C39.8595 22.9992 40.0335 22.9853 40.1838 22.9095C40.3341 22.8338 40.4489 22.7023 40.5036 22.5431L44.6368 9.45173C44.6671 9.35519 44.6743 9.25288 44.6578 9.15306C44.6414 9.05323 44.6017 8.95866 44.542 8.87698H44.5433Z" fill="#1A1A1A"/>
<path d="M36.6162 6.56978C36.4518 6.52411 36.2759 6.5455 36.1272 6.62927C35.9785 6.71303 35.869 6.85234 35.8229 7.01666L30.9994 24.2413C30.9575 24.4046 30.9812 24.5778 31.0654 24.7238C31.1496 24.8698 31.2877 24.977 31.45 25.0225C31.6123 25.068 31.786 25.0481 31.9339 24.9671C32.0817 24.8861 32.1919 24.7504 32.241 24.5892L37.0631 7.36453C37.0859 7.28291 37.0924 7.1976 37.0822 7.11348C37.072 7.02936 37.0453 6.94806 37.0037 6.87425C36.9621 6.80044 36.9063 6.73556 36.8396 6.68332C36.7729 6.63108 36.6965 6.59249 36.6149 6.56978H36.6162Z" fill="#1A1A1A"/>
</g>
<defs>
<clipPath id="clip0_12_2206">
<rect width="44" height="44" fill="white" transform="translate(0.666748)"/>
</clipPath>
</defs>
</svg>
