<svg width="41" height="40" viewBox="0 0 41 40" fill="none" xmlns="http://www.w3.org/2000/svg">
<g clip-path="url(#clip0_12_2183)">
<path d="M39.083 8.82584L20.9215 0.0581812C20.7604 -0.0194751 20.5729 -0.0194751 20.412 0.0581812L2.25036 8.82584C2.04786 8.92357 1.91919 9.12865 1.91919 9.35349V30.6464C1.91919 30.8712 2.04786 31.0763 2.25036 31.174L20.4119 39.9417C20.4924 39.9805 20.5796 40 20.6667 40C20.7538 40 20.8409 39.9805 20.9215 39.9417L39.083 31.174C39.2855 31.0763 39.4142 30.8712 39.4142 30.6464V9.35357C39.4142 9.12857 39.2854 8.92365 39.083 8.82584ZM20.6667 1.23654L37.4805 9.35349L32.6065 11.7065C32.5757 11.6829 32.5431 11.6612 32.5073 11.644L15.8077 3.58224L20.6667 1.23654ZM14.4844 4.24474L31.2738 12.3499L27.8351 14.01L11.0527 5.9081L14.4844 4.24474ZM31.6666 13.4615V19.5979L28.4547 21.1485V15.0121L31.6666 13.4615ZM38.2423 30.2787L21.2526 38.4804V18.4889L25.3052 16.5325C25.5966 16.3918 25.7188 16.0415 25.5781 15.7501C25.4374 15.4587 25.0872 15.3364 24.7957 15.4772L20.6667 17.4705L19.042 16.6861C18.7505 16.5453 18.4003 16.6676 18.2596 16.959C18.1189 17.2504 18.2411 17.6008 18.5325 17.7415L20.0807 18.4889V38.4804L3.09106 30.2786V10.287L16.0286 16.5327C16.1107 16.5724 16.1975 16.5912 16.2829 16.5912C16.5007 16.5912 16.7099 16.4691 16.8109 16.2598C16.9516 15.9684 16.8294 15.6181 16.538 15.4774L3.85286 9.35349L9.67356 6.54349L27.2747 15.0406C27.2772 15.0442 27.2801 15.0474 27.2828 15.0509V22.0821C27.2828 22.2837 27.3865 22.4711 27.5572 22.5784C27.6521 22.6379 27.7603 22.668 27.8688 22.668C27.9557 22.668 28.0428 22.6487 28.1235 22.6097L32.5073 20.4934C32.7098 20.3957 32.8385 20.1907 32.8385 19.9658V12.8958L38.2423 10.2871V30.2787Z" fill="black"/>
<path d="M7.92649 28.0062L5.26125 26.7196C4.96969 26.5787 4.61953 26.701 4.47883 26.9924C4.33812 27.2839 4.46031 27.6342 4.75172 27.7749L7.41696 29.0615C7.49906 29.1012 7.58586 29.1199 7.67125 29.1199C7.88906 29.1199 8.09828 28.9979 8.1993 28.7886C8.34008 28.4971 8.21789 28.147 7.92649 28.0062Z" fill="black"/>
<path d="M10.3793 26.4095L5.26486 23.9404C4.97338 23.7997 4.62314 23.9219 4.48244 24.2134C4.34182 24.5048 4.464 24.8551 4.75541 24.9958L9.86986 27.4649C9.95197 27.5045 10.0388 27.5233 10.1242 27.5233C10.342 27.5233 10.5512 27.4013 10.6522 27.192C10.7929 26.9004 10.6707 26.5501 10.3793 26.4095Z" fill="black"/>
</g>
<defs>
<clipPath id="clip0_12_2183">
<rect width="40" height="40" fill="white" transform="translate(0.666626)"/>
</clipPath>
</defs>
</svg>
