<svg width="46" height="46" viewBox="0 0 46 46" fill="none" xmlns="http://www.w3.org/2000/svg">
<rect width="46" height="46" rx="12" fill="#F8F8FA"/>
<path d="M25.1779 30.5056C25.1184 30.3712 25.105 30.1753 25.1549 30.0371C25.5408 28.9427 25.9363 27.8541 26.3472 26.7673C26.785 25.6134 27.1248 24.4518 26.9539 23.1904C26.76 21.7581 26.1725 20.5177 25.1146 19.5385C24.5981 19.0624 23.9933 18.688 23.3943 18.2425C23.4403 18.1158 23.5152 17.9181 23.5882 17.7203C23.7072 17.3939 23.6151 17.1385 23.3405 17.0368C23.0583 16.9331 22.8221 17.0502 22.6896 17.367C22.6032 17.5705 22.5264 17.776 22.4419 17.9872C21.6432 17.7913 20.8541 17.7126 20.0535 17.8278C17.6669 18.1696 15.9447 19.4214 15.0135 21.6544C14.4432 23.0272 13.9728 24.4422 13.4659 25.84C13.4045 26.0128 13.3066 26.1145 13.1395 26.1894C12.2909 26.5696 11.448 26.9613 10.5994 27.3472C10.3728 27.4489 10.2039 27.5929 10.2096 27.8617C10.2154 28.1401 10.4112 28.2515 10.6416 28.3341C12.2256 28.9024 13.8058 29.4765 15.3936 30.0333C15.6317 30.1177 15.7143 30.2118 15.7008 30.4749C15.6202 32.2374 17.2733 33.5507 18.984 33.1033C19.6771 32.9229 20.2051 32.5177 20.6026 31.9149C20.6851 31.9437 20.76 31.9705 20.8349 31.9955C22.4439 32.5715 24.0528 33.1475 25.6618 33.7273C25.9037 33.8137 26.1264 33.8502 26.3261 33.6448C26.5335 33.4297 26.4471 33.2089 26.3395 32.9824C25.944 32.1625 25.5504 31.3389 25.1779 30.5056ZM17.8954 32.1683C17.1293 31.9475 16.6224 31.2601 16.6762 30.4768C17.6784 30.8339 18.6595 31.1853 19.6445 31.5366C19.3642 32.0742 18.5597 32.3603 17.8954 32.1683Z" fill="#BBBBBB"/>
<circle cx="29.8004" cy="17.4" r="7.4" fill="#F7C35F" stroke="#F6F8FB" stroke-width="2"/>
</svg>
