<svg width="46" height="46" viewBox="0 0 46 46" fill="none" xmlns="http://www.w3.org/2000/svg">
<rect width="46" height="46" rx="12" fill="#F8F8FA"/>
<path d="M25.1784 30.5056C25.1189 30.3712 25.1055 30.1753 25.1554 30.0371C25.5413 28.9427 25.9368 27.8541 26.3477 26.7673C26.7855 25.6134 27.1253 24.4518 26.9544 23.1904C26.7605 21.7581 26.173 20.5177 25.1151 19.5385C24.5986 19.0624 23.9938 18.688 23.3947 18.2425C23.4408 18.1158 23.5157 17.9181 23.5887 17.7203C23.7077 17.3939 23.6155 17.1385 23.341 17.0368C23.0587 16.9331 22.8226 17.0502 22.6901 17.367C22.6037 17.5705 22.5269 17.776 22.4424 17.9872C21.6437 17.7913 20.8546 17.7126 20.0539 17.8278C17.6674 18.1696 15.9451 19.4214 15.0139 21.6544C14.4437 23.0272 13.9733 24.4422 13.4664 25.84C13.405 26.0128 13.3071 26.1145 13.14 26.1894C12.2914 26.5696 11.4485 26.9613 10.5999 27.3472C10.3733 27.4489 10.2043 27.5929 10.2101 27.8617C10.2159 28.1401 10.4117 28.2515 10.6421 28.3341C12.2261 28.9024 13.8063 29.4765 15.3941 30.0333C15.6322 30.1177 15.7147 30.2118 15.7013 30.4749C15.6207 32.2374 17.2738 33.5507 18.9845 33.1033C19.6776 32.9229 20.2056 32.5177 20.6031 31.9149C20.6856 31.9437 20.7605 31.9705 20.8354 31.9955C22.4443 32.5715 24.0533 33.1475 25.6623 33.7273C25.9042 33.8137 26.1269 33.8502 26.3266 33.6448C26.5339 33.4297 26.4475 33.2089 26.34 32.9824C25.9445 32.1625 25.5509 31.3389 25.1784 30.5056ZM17.8959 32.1683C17.1298 31.9475 16.6229 31.2601 16.6767 30.4768C17.6789 30.8339 18.66 31.1853 19.645 31.5366C19.3647 32.0742 18.5602 32.3603 17.8959 32.1683Z" fill="#BBBBBB"/>
<circle cx="29.8004" cy="17.4" r="7.4" fill="#F67366" stroke="#F6F8FB" stroke-width="2"/>
</svg>
