<svg width="578" height="122" viewBox="0 0 578 122" fill="none" xmlns="http://www.w3.org/2000/svg">
<path d="M81.7566 2C40.8783 2 42.1758 50.2172 0 50.2172V122H578V92.5543C558.829 92.5543 534.745 46.2702 493.867 46.2702C452.038 46.2702 451.087 9.20058 410.209 9.20058C368.38 9.20058 370.757 35.5168 329.878 35.5168C289 35.5168 288.049 80.673 246.22 80.673C205.342 80.673 206.293 41.397 164.464 41.397C123.586 41.397 123.586 2 81.7566 2Z" fill="url(#paint0_linear_237_5543)"/>
<path d="M81.7566 2C40.8783 2 42.1758 50.2172 0 50.2172V122H578V92.5543C558.829 92.5543 534.745 46.2702 493.867 46.2702C452.038 46.2702 451.087 9.20058 410.209 9.20058C368.38 9.20058 370.757 35.5168 329.878 35.5168C289 35.5168 288.049 80.673 246.22 80.673C205.342 80.673 206.293 41.397 164.464 41.397C123.586 41.397 123.586 2 81.7566 2Z" fill="url(#paint1_linear_237_5543)"/>
<path d="M0 50.2172C41.7871 50.2172 40.5015 2 81.0031 2C122.446 2 122.446 41.397 162.948 41.397C204.391 41.397 203.45 80.673 243.951 80.673C285.394 80.673 286.336 35.5168 326.838 35.5168C367.339 35.5168 364.985 9.20058 406.428 9.20058C446.93 9.20058 447.872 46.2702 489.315 46.2702C529.817 46.2702 553.679 92.5542 572.673 92.5542" stroke="#00B207" stroke-width="3"/>
<defs>
<linearGradient id="paint0_linear_237_5543" x1="289" y1="2" x2="289" y2="122" gradientUnits="userSpaceOnUse">
<stop stop-color="#C5F4C1"/>
<stop offset="1" stop-color="#C5F4C1" stop-opacity="0"/>
</linearGradient>
<linearGradient id="paint1_linear_237_5543" x1="289" y1="2" x2="289" y2="122" gradientUnits="userSpaceOnUse">
<stop stop-color="#336CFB" stop-opacity="0.2"/>
<stop offset="1" stop-color="#336CFB" stop-opacity="0.02"/>
</linearGradient>
</defs>
</svg>
