<svg width="14" height="14" viewBox="0 0 14 14" fill="none" xmlns="http://www.w3.org/2000/svg">
<path fill-rule="evenodd" clip-rule="evenodd" d="M6.9999 12.6C8.48511 12.6 9.9095 12.01 10.9597 10.9598C12.0099 9.90962 12.5999 8.48524 12.5999 7.00002C12.5999 5.51481 12.0099 4.09043 10.9597 3.04023C9.9095 1.99002 8.48511 1.40002 6.9999 1.40002C5.51469 1.40002 4.09031 1.99002 3.0401 3.04023C1.9899 4.09043 1.3999 5.51481 1.3999 7.00002C1.3999 8.48524 1.9899 9.90962 3.0401 10.9598C4.09031 12.01 5.51469 12.6 6.9999 12.6ZM9.5948 6.09492C9.72231 5.9629 9.79287 5.78608 9.79127 5.60254C9.78968 5.41901 9.71606 5.24344 9.58628 5.11365C9.45649 4.98387 9.28092 4.91025 9.09738 4.90865C8.91385 4.90706 8.73702 4.97761 8.605 5.10512L6.2999 7.41022L5.3948 6.50512C5.26278 6.37761 5.08596 6.30706 4.90242 6.30865C4.71888 6.31025 4.54331 6.38387 4.41353 6.51365C4.28374 6.64344 4.21013 6.81901 4.20853 7.00254C4.20694 7.18608 4.27749 7.3629 4.405 7.49492L5.805 8.89492C5.93627 9.02615 6.11429 9.09987 6.2999 9.09987C6.48552 9.09987 6.66353 9.02615 6.7948 8.89492L9.5948 6.09492Z" fill="#2E964B"/>
</svg>
