<svg width="17" height="16" viewBox="0 0 17 16" fill="none" xmlns="http://www.w3.org/2000/svg">
<path d="M12.2712 11.1047L9.44251 13.9334C9.3188 14.0572 9.1719 14.1554 9.01021 14.2225C8.84852 14.2895 8.67521 14.324 8.50017 14.324C8.32514 14.324 8.15183 14.2895 7.99013 14.2225C7.82844 14.1554 7.68154 14.0572 7.55784 13.9334L4.72851 11.1047C3.98265 10.3588 3.47473 9.40852 3.26896 8.37396C3.0632 7.3394 3.16883 6.26706 3.57251 5.29254C3.97618 4.31801 4.65977 3.48508 5.53683 2.89905C6.41388 2.31303 7.44502 2.00024 8.49984 2.00024C9.55466 2.00024 10.5858 2.31303 11.4629 2.89905C12.3399 3.48508 13.0235 4.31801 13.4272 5.29254C13.8308 6.26706 13.9365 7.3394 13.7307 8.37396C13.5249 9.40852 13.017 10.3588 12.2712 11.1047V11.1047Z" stroke="black" stroke-width="2" stroke-linecap="round" stroke-linejoin="round"/>
<path d="M9.91421 8.74759C10.2893 8.37251 10.5 7.86381 10.5 7.33337C10.5 6.80294 10.2893 6.29423 9.91421 5.91916C9.53914 5.54409 9.03043 5.33337 8.5 5.33337C7.96957 5.33337 7.46086 5.54409 7.08579 5.91916C6.71071 6.29423 6.5 6.80294 6.5 7.33337C6.5 7.86381 6.71071 8.37251 7.08579 8.74759C7.46086 9.12266 7.96957 9.33337 8.5 9.33337C9.03043 9.33337 9.53914 9.12266 9.91421 8.74759Z" stroke="black" stroke-width="2" stroke-linecap="round" stroke-linejoin="round"/>
</svg>
