<svg width="41" height="40" viewBox="0 0 41 40" fill="none" xmlns="http://www.w3.org/2000/svg">
<g clip-path="url(#clip0_12_2178)">
<path d="M40.0416 5.56499C40.0349 5.44129 39.9892 5.32289 39.9111 5.22677C39.8329 5.13066 39.7263 5.06177 39.6066 5.02999L20.8041 0.0199863C20.705 -0.00641795 20.6007 -0.00641795 20.5016 0.0199863L1.72534 5.02999C1.60603 5.06192 1.49986 5.13072 1.42197 5.22657C1.34408 5.32242 1.29845 5.44042 1.29159 5.56374C1.27909 5.79999 0.997838 11.3875 3.19534 18.4512C4.48659 22.6037 6.37284 26.3937 8.79909 29.7187C11.8353 33.8775 15.7291 37.3112 20.3716 39.925C20.4573 39.9731 20.5537 39.9989 20.652 40C20.7503 40.0011 20.8473 39.9774 20.9341 39.9312C25.5853 37.4612 29.4853 34.1137 32.5266 29.985C34.9566 26.685 36.8441 22.8825 38.1366 18.685C40.3353 11.5425 40.0541 5.80499 40.0416 5.56374V5.56499ZM37.0041 18.3787C35.7478 22.445 33.9191 26.1225 31.5678 29.31C28.8253 33.0275 25.3578 36.0887 21.2528 38.4187V35.405C26.5753 32.0437 30.5903 27.2875 33.1841 21.26C35.3216 16.2975 36.0178 11.5862 36.2253 8.50874C36.2346 8.37306 36.1964 8.23839 36.1172 8.12779C36.0381 8.0172 35.923 7.93755 35.7916 7.90249L34.5966 7.58374C34.4477 7.54754 34.2906 7.57105 34.1589 7.64924C34.0271 7.72743 33.9312 7.85408 33.8917 8.0021C33.8521 8.15011 33.8721 8.30772 33.9473 8.44119C34.0225 8.57466 34.147 8.67339 34.2941 8.71624L35.0191 8.90999C34.7803 11.8937 34.0703 16.2375 32.1078 20.7975C29.6228 26.57 25.7891 31.1312 20.7128 34.36C20.2028 34.0225 19.7028 33.6725 19.2191 33.3125C19.0942 33.225 18.94 33.1896 18.7894 33.2139C18.6388 33.2381 18.5036 33.3201 18.4125 33.4425C18.3214 33.5648 18.2816 33.7179 18.3015 33.8691C18.3214 34.0203 18.3994 34.1579 18.5191 34.2525C19.0241 34.6275 19.5478 34.995 20.0816 35.3462V38.4C15.9728 35.9425 12.5041 32.8 9.76159 29.05C7.41159 25.835 5.58284 22.1662 4.32784 18.145C2.52034 12.3562 2.43159 7.47499 2.45034 6.04999L20.0803 1.34499V4.02124L5.55034 7.89999C5.4185 7.93512 5.30304 8.01515 5.22386 8.12627C5.14469 8.23739 5.10675 8.37265 5.11659 8.50874C5.26784 10.6262 5.69409 13.9212 6.86409 17.5912C8.79909 23.6612 12.0478 28.7237 16.5216 32.6412C16.5795 32.6922 16.6468 32.7312 16.7199 32.756C16.7929 32.7808 16.8701 32.7909 16.9471 32.7856C17.024 32.7804 17.0992 32.76 17.1682 32.7255C17.2372 32.6911 17.2987 32.6433 17.3491 32.585C17.4512 32.468 17.5027 32.3154 17.4924 32.1605C17.4821 32.0056 17.4108 31.8611 17.2941 31.7587C12.9828 27.9837 9.85034 23.0987 7.98159 17.2362C7.12405 14.5295 6.56818 11.7363 6.32409 8.90749L20.6528 5.08249L31.7616 8.04374C31.8368 8.06639 31.9159 8.07369 31.994 8.06519C32.0721 8.05669 32.1478 8.03257 32.2164 7.99426C32.285 7.95595 32.3452 7.90423 32.3934 7.84219C32.4417 7.78014 32.4769 7.70903 32.4972 7.63308C32.5174 7.55713 32.5221 7.4779 32.511 7.40009C32.5 7.32228 32.4735 7.24748 32.4329 7.18014C32.3924 7.1128 32.3388 7.05429 32.2752 7.0081C32.2116 6.9619 32.1394 6.92896 32.0628 6.91124L21.2541 4.02874V1.35249L38.8828 6.04999C38.9016 7.49999 38.8166 12.5112 37.0041 18.3787Z" fill="#1A1A1A"/>
<path d="M29.4829 13.6925C29.3127 13.5209 29.1102 13.3848 28.887 13.2921C28.6639 13.1994 28.4245 13.1519 28.1829 13.1525C27.9413 13.1518 27.702 13.199 27.4789 13.2915C27.2557 13.384 27.0531 13.5199 26.8829 13.6912L19.4141 21.16L15.3366 17.0825C15.1663 16.9113 14.9637 16.7757 14.7405 16.6834C14.5173 16.5912 14.2781 16.5441 14.0366 16.545C13.7952 16.5441 13.5559 16.5912 13.3328 16.6834C13.1096 16.7757 12.907 16.9113 12.7366 17.0825C12.5653 17.2528 12.4295 17.4554 12.337 17.6785C12.2445 17.9016 12.1972 18.1409 12.1979 18.3825C12.1979 18.8737 12.3891 19.3362 12.7354 19.6825L18.1141 25.06C18.2844 25.2313 18.487 25.3672 18.7101 25.4597C18.9333 25.5522 19.1726 25.5994 19.4141 25.5987C19.6556 25.5996 19.8948 25.5525 20.118 25.4603C20.3412 25.368 20.5438 25.2324 20.7141 25.0612L29.4829 16.2925C29.8304 15.945 30.0204 15.4825 30.0204 14.9925C30.0212 14.751 29.9742 14.5118 29.8819 14.2886C29.7897 14.0655 29.654 13.8628 29.4829 13.6925ZM28.6541 15.4625L19.8854 24.2312C19.8238 24.2937 19.7505 24.3434 19.6696 24.3773C19.5887 24.4112 19.5018 24.4286 19.4141 24.4286C19.3264 24.4286 19.2396 24.4112 19.1587 24.3773C19.0778 24.3434 19.0044 24.2937 18.9429 24.2312L13.5654 18.8537C13.503 18.7921 13.4535 18.7187 13.4197 18.6378C13.3859 18.5569 13.3685 18.4701 13.3685 18.3825C13.3685 18.2948 13.3859 18.208 13.4197 18.1271C13.4535 18.0462 13.503 17.9728 13.5654 17.9112C13.6269 17.8487 13.7003 17.7991 13.7812 17.7652C13.8621 17.7313 13.9489 17.7138 14.0366 17.7138C14.1243 17.7138 14.2112 17.7313 14.2921 17.7652C14.373 17.7991 14.4463 17.8487 14.5079 17.9112L18.9991 22.4025C19.2291 22.6312 19.5991 22.6312 19.8279 22.4025L27.7116 14.52C27.7732 14.4576 27.8466 14.4081 27.9275 14.3743C28.0084 14.3405 28.0952 14.3231 28.1829 14.3231C28.2705 14.3231 28.3573 14.3405 28.4382 14.3743C28.5191 14.4081 28.5925 14.4576 28.6541 14.52C28.7165 14.5816 28.766 14.655 28.7998 14.7359C28.8336 14.8168 28.851 14.9036 28.851 14.9912C28.851 15.0789 28.8336 15.1657 28.7998 15.2466C28.766 15.3275 28.7165 15.4009 28.6541 15.4625Z" fill="#1A1A1A"/>
</g>
<defs>
<clipPath id="clip0_12_2178">
<rect width="40" height="40" fill="white" transform="translate(0.666626)"/>
</clipPath>
</defs>
</svg>
