<svg width="1440" height="137" viewBox="0 0 1440 137" fill="none" xmlns="http://www.w3.org/2000/svg">
<path d="M14.0049 128.133L0 124.586V0H1440V135.67L1428 133.453L1417.49 135.67H1375.48L1359.97 133.453H1339.97L1331.96 130.35L1317.96 133.453H1306.95L1296.95 130.35H1282.95L1271.94 133.453L1262.94 130.35L1246.93 129.463L1227.93 130.35L1212.42 129.463L1196.92 124.586L1167.91 130.35L1155.4 129.463H1128.39L1120.89 128.133L1110.39 130.35H1096.38L1087.88 133.453H1077.87L1065.87 130.35L1047.36 137L1029.36 133.453L1009.85 137L994.845 133.453H982.341H961.834L954.331 130.35H939.826L919.319 133.453H911.817L906.315 130.35H891.31L878.805 129.463L877.305 130.35L871.803 127.689L847.794 130.35H842.292H829.788L817.284 133.453H803.279H780.771C773.569 130.97 761.098 132.419 755.762 133.453C749.76 132.419 737.256 130.35 735.255 130.35H726.752C725.952 130.35 720.75 132.419 718.249 133.453L691.24 128.133L684.738 130.35L663.23 128.133V131.68L632.72 128.133H618.215H608.711L595.707 123.256H554.192L540.688 128.133H532.185H516.179H506.676C503.175 126.507 495.472 123.256 492.671 123.256C489.87 123.256 481.501 126.507 477.666 128.133H458.659C455.325 125.029 446.455 119.709 437.652 123.256C428.849 126.803 416.311 127.985 411.143 128.133L404.641 132.566C401.806 131.088 395.237 128.133 391.636 128.133C388.035 128.133 382.8 131.088 380.632 132.566C379.298 133.896 373.83 135.759 362.626 132.566C351.422 129.374 339.618 131.236 335.116 132.566H323.612H313.109H307.107L281.598 128.133H255.089H243.084L229.08 132.566H203.071H181.563H163.057L137.548 128.133L131.546 136.557H118.541L95.033 132.566H80.0278H61.5214C58.3203 132.566 45.8493 129.611 40.0139 128.133L22.5078 124.586L14.0049 121.482V128.133Z" fill="white"/>
</svg>
